<?xml version="1.0" encoding="UTF-8" standalone="no"?>
<svg
   xmlns:dc="http://purl.org/dc/elements/1.1/"
   xmlns:cc="http://creativecommons.org/ns#"
   xmlns:rdf="http://www.w3.org/1999/02/22-rdf-syntax-ns#"
   xmlns:svg="http://www.w3.org/2000/svg"
   xmlns="http://www.w3.org/2000/svg"
   xmlns:sodipodi="http://sodipodi.sourceforge.net/DTD/sodipodi-0.dtd"
   xmlns:inkscape="http://www.inkscape.org/namespaces/inkscape"
   width="18"
   height="12.6"
   viewBox="0 0 4.7624998 3.3337502"
   version="1.1"
   id="svg1123"
   inkscape:version="1.0.2-2 (e86c870879, 2021-01-15)"
   sodipodi:docname="icon_add_user.svg">
  <defs
     id="defs1117" />
  <sodipodi:namedview
     id="base"
     pagecolor="#ffffff"
     bordercolor="#666666"
     borderopacity="1.0"
     inkscape:pageopacity="0.0"
     inkscape:pageshadow="2"
     inkscape:zoom="50.945244"
     inkscape:cx="7.9999999"
     inkscape:cy="7.9999999"
     inkscape:document-units="mm"
     inkscape:current-layer="layer1"
     inkscape:document-rotation="0"
     showgrid="false"
     units="px"
     inkscape:window-width="1920"
     inkscape:window-height="1027"
     inkscape:window-x="1912"
     inkscape:window-y="-8"
     inkscape:window-maximized="1" />
  <metadata
     id="metadata1120">
    <rdf:RDF>
      <cc:Work
         rdf:about="">
        <dc:format>image/svg+xml</dc:format>
        <dc:type
           rdf:resource="http://purl.org/dc/dcmitype/StillImage" />
        <dc:title></dc:title>
      </cc:Work>
    </rdf:RDF>
  </metadata>
  <g
     inkscape:label="Layer 1"
     inkscape:groupmode="layer"
     id="layer1">
    <path
       id="path835"
       style="fill:#c3ccdf;fill-opacity:1;stroke:#000000;stroke-width:0;stroke-linecap:butt;stroke-linejoin:miter;stroke-miterlimit:4;stroke-dasharray:none;stroke-opacity:1"
       d="M 3.6497773,1.1647547e-4 V 0.67623793 H 2.9666794 V 1.101212 H 3.6497773 V 1.7773335 H 4.0794021 V 1.101212 H 4.7624999 V 0.67623793 H 4.0794021 V 1.1647547e-4 Z M 1.8870942,0.11929524 c -0.4018392,0.0027 -0.7261184,0.32608639 -0.7261184,0.72379299 -6.3e-5,0.39986437 0.3273236,0.72436537 0.7313507,0.72437427 0.4040261,-8.9e-6 0.731986,-0.3245099 0.7319319,-0.72437427 -8.9e-6,-0.3998092 -0.3279598,-0.72377385 -0.7319319,-0.72379299 -0.0018,-8.96e-6 -0.00343,-8.96e-6 -0.00523,0 z m 0.00349,0.45229799 c 6.75e-4,-3.4e-6 0.00107,-3.4e-6 0.00174,0 0.1516867,7.2e-6 0.2749798,0.1213713 0.2749831,0.271495 2.04e-5,0.1501443 -0.1232761,0.27207297 -0.2749831,0.27207637 -0.1517074,-3.4e-6 -0.2744255,-0.12193207 -0.2744019,-0.27207637 0,-0.1493342 0.1217718,-0.2704812 0.2726578,-0.271495 z M 1.8620957,1.8424458 C 0.22979836,1.8424458 2.0111711e-7,3.3336336 2.0111711e-7,3.3336336 H 3.7474457 c 0,0 -0.2530506,-1.4911879 -1.88535,-1.4911878 z"
       sodipodi:nodetypes="cccccccccccccsccccsssccccsssccs" />
  </g>
</svg>
